<svg width="28" height="18" viewBox="0 0 28 18" fill="none" xmlns="http://www.w3.org/2000/svg">
<path d="M0.852564 17.34H8.91441C14.0889 17.34 15.8838 10.4578 11.3095 7.98857C14.3799 5.30501 12.4793 0.23999 8.35967 0.23999H0.852564C0.381949 0.23999 0 0.62303 0 1.09499V16.485C0 16.957 0.381949 17.34 0.852564 17.34V17.34ZM1.70513 1.94999H8.35967C12.0098 1.94999 12.0143 7.38551 8.35967 7.38551H1.70513V1.94999ZM1.70513 9.09551H8.91441C13.3034 9.09551 13.3034 15.63 8.91441 15.63H1.70513V9.09551Z" fill="#D5D5DE"/>
<path d="M20.8867 4.63699C17.182 4.63699 14.3447 7.92931 14.4811 10.5183C14.2003 14.2574 17.2059 17.34 20.8867 17.34C23.1738 17.34 25.3064 16.1259 26.4511 14.1697C27.0229 13.1927 25.5519 12.3308 24.9813 13.3033C24.1412 14.7385 22.5713 15.63 20.8867 15.63C18.4006 15.63 16.3795 13.7285 16.1976 11.3311C17.8379 11.3505 20.8992 11.1168 26.4136 11.2935C26.4318 11.2935 26.4443 11.2843 26.4613 11.2843C28.7348 11.1817 26.2465 4.63699 20.8867 4.63699ZM16.4215 9.53671C17.8834 5.21725 24.0582 5.34607 25.3905 9.60967C20.7707 9.72025 18.0062 9.53443 16.4215 9.53671Z" fill="#D5D5DE"/>
<path d="M24.2219 3.04896C25.3507 3.04896 25.3496 1.33896 24.2219 1.33896H17.5492C16.4204 1.33896 16.4215 3.04896 17.5492 3.04896H24.2219Z" fill="#D5D5DE"/>
</svg>
