<svg width="21" height="21" viewBox="0 0 21 21" fill="none" xmlns="http://www.w3.org/2000/svg">
<g clip-path="url(#clip0)">
<path d="M19.5921 5.2294C18.6532 3.62078 17.3795 2.34713 15.7708 1.40821C14.1619 0.46934 12.4055 0 10.5003 0C8.59532 0 6.8384 0.46934 5.22973 1.40821C3.62097 2.34699 2.34732 3.62064 1.40835 5.2294C0.46934 6.83825 0 8.59518 0 10.5C0 12.405 0.469483 14.1616 1.40821 15.7706C2.34713 17.3792 3.62078 18.6528 5.22954 19.5918C6.8384 20.5307 8.59518 21 10.5001 21C12.4051 21 14.162 20.5307 15.7708 19.5918C17.3795 18.6532 18.6531 17.3792 19.5919 15.7706C20.5307 14.1617 21 12.4049 21 10.5C21 8.59499 20.5307 6.83801 19.5921 5.2294ZM10.5002 1.53128C12.7605 1.53128 14.7339 2.27865 16.42 3.77335L16.2491 4.01245C16.1808 4.10832 16.0098 4.29268 15.7365 4.56626C15.4631 4.8396 15.1646 5.09953 14.8411 5.34557C14.5173 5.59171 14.0778 5.87194 13.5215 6.18642C12.9655 6.50089 12.3731 6.77677 11.7441 7.01371C10.696 5.08123 9.57504 3.34035 8.38098 1.79097C9.10115 1.61781 9.80748 1.53128 10.5002 1.53128ZM3.47295 4.93523C4.34789 3.83258 5.41414 2.98479 6.67209 2.39243C7.80227 3.89632 8.91415 5.6191 10.008 7.56044C7.23715 8.28961 4.47551 8.65422 1.72288 8.65408C2.0147 7.27786 2.59801 6.03811 3.47295 4.93523ZM2.13288 13.7337C1.73178 12.7083 1.53128 11.6303 1.53128 10.5C1.53128 10.3724 1.53597 10.2766 1.54498 10.2129C4.84462 10.2129 7.91178 9.78919 10.7464 8.94135C11.0381 9.50642 11.2797 10.0123 11.4711 10.459C11.4342 10.4772 11.3753 10.4976 11.2933 10.5205C11.211 10.5433 11.1519 10.5591 11.1151 10.5683L10.6093 10.746C10.2628 10.8737 9.80925 11.0925 9.24893 11.4022C8.68846 11.7124 8.09375 12.0813 7.46481 12.5098C6.83586 12.9384 6.18642 13.5057 5.51657 14.2124C4.84664 14.9187 4.28382 15.6773 3.82808 16.4884C3.09891 15.6773 2.53389 14.7588 2.13288 13.7337ZM10.5002 19.4689C8.36728 19.4689 6.46234 18.7852 4.7852 17.4182L4.9903 17.5686C5.30927 16.8666 5.77861 16.1921 6.39856 15.5451C7.0184 14.8981 7.61536 14.376 8.18957 13.9794C8.76379 13.5832 9.38809 13.2095 10.0627 12.8582C10.7371 12.5075 11.1972 12.284 11.4435 12.1886C11.6896 12.0929 11.8856 12.0175 12.0314 11.9627L12.0586 11.949H12.0862C12.9791 14.2914 13.6175 16.5611 14.0001 18.7577C12.8699 19.2319 11.7034 19.4688 10.5002 19.4689ZM18.0474 15.3468C17.3729 16.3905 16.5296 17.2543 15.5182 17.9376C15.1442 15.8413 14.5612 13.7037 13.768 11.5255C15.5818 11.2426 17.4457 11.375 19.3598 11.9217C19.1592 13.1613 18.7216 14.3032 18.0474 15.3468ZM19.3322 10.377C19.2411 10.3589 19.127 10.3382 18.9904 10.3156C18.8537 10.2929 18.6872 10.2654 18.4912 10.2335C18.2955 10.2016 18.0764 10.1721 17.8351 10.1447C17.5935 10.1174 17.336 10.0924 17.0624 10.0696C16.789 10.0467 16.4973 10.0286 16.1876 10.0148C15.8773 10.0012 15.563 9.99434 15.2439 9.99434C14.9252 9.99434 14.59 10.0036 14.2392 10.0217C13.8884 10.0396 13.549 10.0719 13.2209 10.1174C13.1934 10.0718 13.1593 9.99654 13.1183 9.89167C13.0773 9.78694 13.0475 9.70706 13.0298 9.65238C12.8564 9.26957 12.6558 8.83658 12.4277 8.35364C13.0567 8.09825 13.6561 7.80442 14.2261 7.47165C14.7956 7.13889 15.251 6.84285 15.593 6.58311C15.9349 6.32309 16.2584 6.04735 16.5637 5.75577C16.8691 5.46414 17.0671 5.26143 17.1586 5.14746C17.2498 5.0333 17.3364 4.92172 17.4183 4.81249L17.432 4.7987C18.7627 6.42111 19.442 8.28952 19.4691 10.4043L19.3322 10.377Z" fill="#D5D5DE"/>
</g>
<defs>
<clipPath id="clip0">
<rect width="21" height="21" fill="white"/>
</clipPath>
</defs>
</svg>
