<svg width="22" height="21" viewBox="0 0 22 21" fill="none" xmlns="http://www.w3.org/2000/svg">
<path d="M10.9564 0C4.90297 0 0 4.8208 0 10.7664C0 15.5242 3.139 19.5589 7.49141 20.9814C8.03923 21.0828 8.24009 20.7495 8.24009 20.4637C8.24009 20.2081 8.23096 19.5306 8.2264 18.6331C5.17871 19.2823 4.53593 17.1887 4.53593 17.1887C4.03742 15.9461 3.31704 15.6137 3.31704 15.6137C2.32457 14.9463 3.39373 14.96 3.39373 14.96C4.49393 15.0349 5.07188 16.0693 5.07188 16.0693C6.04882 17.7155 7.63658 17.2398 8.26292 16.965C8.36153 16.2684 8.64365 15.7945 8.95682 15.5252C6.5236 15.2558 3.9662 14.33 3.9662 10.2049C3.9662 9.02987 4.39076 8.06936 5.09379 7.31611C4.97053 7.04402 4.60076 5.9493 5.18966 4.46654C5.18966 4.46654 6.10726 4.17802 8.20266 5.57039C9.07917 5.33118 10.0105 5.21249 10.9417 5.20701C11.873 5.21249 12.8043 5.33118 13.6808 5.57039C15.7625 4.17802 16.6801 4.46654 16.6801 4.46654C17.269 5.9493 16.8993 7.04402 16.7897 7.31611C17.4882 8.06936 17.9127 9.02987 17.9127 10.2049C17.9127 14.341 15.3517 15.2513 12.9139 15.516C13.2974 15.8392 13.6534 16.4994 13.6534 17.5083C13.6534 18.949 13.6398 20.1067 13.6398 20.4564C13.6398 20.7386 13.8315 21.0755 14.393 20.9677C18.7765 19.5544 21.9127 15.5169 21.9127 10.7664C21.9127 4.8208 17.007 0 10.9564 0V0Z" fill="#D5D5DE"/>
</svg>
