<svg width="19" height="19" viewBox="0 0 19 19" fill="none" xmlns="http://www.w3.org/2000/svg">
<path d="M4.4227 6.09158H0.608423C0.439139 6.09158 0.301971 6.22881 0.301971 6.39803V18.6517C0.301971 18.821 0.439139 18.9581 0.608423 18.9581H4.4227C4.59199 18.9581 4.72916 18.821 4.72916 18.6517V6.39803C4.72916 6.22881 4.59199 6.09158 4.4227 6.09158Z" fill="#D5D5DE"/>
<path d="M2.51695 0C1.12909 0 0 1.12786 0 2.51419C0 3.90113 1.12909 5.02942 2.51695 5.02942C3.9037 5.02942 5.03187 3.90107 5.03187 2.51419C5.03194 1.12786 3.9037 0 2.51695 0Z" fill="#D5D5DE"/>
<path d="M14.1246 5.78702C12.5926 5.78702 11.4602 6.44558 10.7733 7.19388V6.39802C10.7733 6.2288 10.6361 6.09157 10.4668 6.09157H6.81399C6.64471 6.09157 6.50754 6.2288 6.50754 6.39802V18.6517C6.50754 18.821 6.64471 18.9581 6.81399 18.9581H10.6199C10.7892 18.9581 10.9264 18.821 10.9264 18.6517V12.589C10.9264 10.546 11.4813 9.75005 12.9055 9.75005C14.4565 9.75005 14.5797 11.026 14.5797 12.6941V18.6517C14.5797 18.821 14.7169 18.9582 14.8862 18.9582H18.6935C18.8628 18.9582 19 18.821 19 18.6517V11.9304C19 8.89254 18.4207 5.78702 14.1246 5.78702Z" fill="#D5D5DE"/>
</svg>
