<?xml version="1.0" standalone="no"?>
<!DOCTYPE svg PUBLIC "-//W3C//DTD SVG 20010904//EN"
 "http://www.w3.org/TR/2001/REC-SVG-20010904/DTD/svg10.dtd">
<svg version="1.0" xmlns="http://www.w3.org/2000/svg"
 width="1600.000000pt" height="1600.000000pt" viewBox="0 0 1600.000000 1600.000000"
 preserveAspectRatio="xMidYMid meet">
<metadata>
Created by potrace 1.11, written by Peter Selinger 2001-2013
</metadata>
<g transform="translate(0.000000,1600.000000) scale(0.100000,-0.100000)"
fill="#000000" stroke="none">
<path d="M0 8000 l0 -8000 8000 0 8000 0 0 8000 0 8000 -8000 0 -8000 0 0
-8000z m7490 1090 l0 -1780 -462 0 -463 0 -500 480 c-275 263 -500 478 -501
477 -6 -6 -713 -933 -734 -962 -14 -19 -28 -35 -33 -35 -12 0 -727 552 -727
561 0 5 44 64 98 131 81 102 631 803 709 905 l25 32 -191 188 -191 188 280
350 c154 192 283 351 288 353 5 1 81 -66 169 -150 87 -84 170 -163 184 -176
l26 -22 484 619 484 620 528 0 527 1 0 -1780z m1612 1448 l3 -333 249 333 249
332 41 -1 41 0 365 -482 c201 -265 495 -652 653 -861 158 -208 286 -382 285
-387 -2 -4 -163 -137 -358 -295 -195 -157 -372 -300 -392 -317 -21 -17 -38
-34 -38 -39 0 -5 165 -214 368 -466 502 -625 562 -700 562 -707 0 -3 -274 -5
-608 -5 l-608 0 -400 489 c-219 270 -402 490 -406 490 -5 1 -8 -219 -8 -489
l0 -490 -430 0 -430 0 0 1780 0 1780 430 0 430 0 2 -332z m2428 292 c283 -5
682 -13 885 -16 204 -3 379 -8 390 -9 11 -2 101 -4 200 -4 l180 -1 198 -370
199 -370 -30 -53 -29 -52 -390 -3 -390 -2 -6 -428 c-4 -235 -7 -740 -7 -1122
l0 -695 -387 -226 -388 -226 -62 31 -63 30 -1 931 c0 511 -3 1115 -5 1340 l-4
410 -363 3 c-199 1 -367 4 -373 6 -9 3 -397 702 -406 731 -2 6 11 33 29 62
l32 51 138 -4 c76 -2 370 -9 653 -14z"/>
<path d="M6355 9326 c-142 -178 -257 -327 -257 -330 1 -6 418 -406 505 -485
l27 -24 0 581 c0 320 -4 582 -8 582 -5 0 -125 -146 -267 -324z"/>
<path d="M9332 9304 c-107 -135 -192 -248 -189 -250 2 -2 180 -3 395 -2 l391
3 -192 247 c-106 136 -196 247 -202 247 -5 0 -97 -110 -203 -245z"/>
</g>
</svg>
