<svg width="700" height="470" viewBox="0 0 700 470" fill="none" xmlns="http://www.w3.org/2000/svg">
<g clip-path="url(#clip0)">
<path opacity="0.05" d="M664.571 388.403C664.571 388.403 715.327 290.098 664.571 298.963C613.815 307.828 508.948 290.713 552.987 212.406C597.026 134.099 596.206 73.513 510.481 98.331C424.756 123.149 385.339 132.197 356.871 64.897C328.403 -2.40299 210.15 -32.331 194.821 50.884C179.492 134.099 186.865 176.084 101.059 185.384C15.253 194.685 -9.06399 246.223 32.772 278.416C74.608 310.609 -22.023 384.34 74.355 402.655C170.733 420.97 664.571 388.403 664.571 388.403Z" fill="#3FC9EE"/>
<path d="M350.119 469.772C543.325 469.772 699.949 444.45 699.949 413.214C699.949 381.978 543.325 356.656 350.119 356.656C156.913 356.656 0.289001 381.978 0.289001 413.214C0.289001 444.45 156.913 469.772 350.119 469.772Z" fill="#F4F4F4"/>
<path d="M114.901 337.516H478.703C481.659 337.516 484.078 335.097 484.078 332.141V65.189C484.078 62.233 481.659 59.814 478.703 59.814H114.901C111.945 59.814 109.526 62.233 109.526 65.189V332.142C109.526 335.097 111.945 337.516 114.901 337.516Z" fill="#EDEDED"/>
<path d="M478.669 59.814H114.935C111.96 59.814 109.526 62.248 109.526 65.223V78.35H484.077V65.223C484.077 62.248 481.644 59.814 478.669 59.814Z" fill="white"/>
<path d="M131.01 68.978C131.001 71.222 129.174 73.034 126.93 73.025C124.686 73.016 122.874 71.189 122.883 68.945C122.892 66.701 124.719 64.889 126.963 64.898C129.207 64.907 131.019 66.734 131.01 68.978Z" fill="#C9C9C9"/>
<path d="M143.652 69.03C143.643 71.274 141.816 73.086 139.572 73.077C137.328 73.068 135.516 71.241 135.525 68.997C135.534 66.753 137.361 64.941 139.605 64.95C141.85 64.959 143.661 66.786 143.652 69.03Z" fill="#C9C9C9"/>
<path d="M156.295 69.082C156.286 71.326 154.459 73.138 152.215 73.129C149.971 73.12 148.159 71.293 148.168 69.049C148.177 66.805 150.004 64.993 152.248 65.002C154.492 65.011 156.304 66.838 156.295 69.082Z" fill="#C9C9C9"/>
<path d="M572.924 416.478C572.924 416.478 583.768 418.331 595.419 418.331C606.218 418.331 616.638 416.478 616.638 416.478L615.791 414.598C612.068 406.333 597.98 409.548 594.781 401.019C592.116 409.548 577.494 406.333 573.771 414.598L572.924 416.478Z" fill="#ECE8EC"/>
<path d="M592.116 407.243H597.98V352.335H592.116V407.243Z" fill="#ECE8EC"/>
<path d="M593.784 402.742L591.226 397.146L585.619 399.211L587.175 404.968L593.784 402.742Z" fill="#F5D09F"/>
<path d="M593.774 402.656L595.12 407.228L589.192 409.101C589.192 409.101 575.81 414.719 573.317 412.114C572.175 410.921 576.531 409.743 579.327 407.892C582.123 406.041 586.515 403.427 586.515 403.427C586.515 403.427 590.372 403.572 593.774 402.656Z" fill="#0B4870"/>
<path d="M564.162 411.011L563.289 404.921L557.327 405.318L557.194 411.28L564.162 411.011Z" fill="#F5D09F"/>
<path d="M564.177 410.926V415.692L557.961 415.815C557.961 415.815 543.538 417.426 541.881 414.224C541.122 412.757 545.634 412.857 548.839 411.871C552.044 410.885 556.995 409.617 556.995 409.617C556.995 409.617 560.655 410.844 564.177 410.926Z" fill="#0B4870"/>
<path d="M510.261 306.022L518.498 303.289L525.79 305.135C529.895 304.068 531.261 304.127 539.667 301.966C546.765 300.141 554.916 296.501 554.916 296.501L560.958 286.372C564.867 286.727 573.079 290.992 573.079 290.992C573.079 290.992 561.847 306.274 558.648 307.34C555.45 308.406 533.886 311.035 525.665 310.092C523.076 309.795 518.009 307.054 518.009 307.054L511.509 308.134L506.441 311.555L505.556 310.823L507.572 308.615L510.261 306.022Z" fill="#E9BB88"/>
<path d="M567.189 267.084C567.189 267.084 577.662 268.837 577.485 278.255C577.369 284.389 568.956 295.847 568.956 295.847C568.956 295.847 564.336 289.45 558.65 287.673C558.65 287.673 562.343 276.839 563.473 273.451C564.892 269.192 567.189 267.084 567.189 267.084Z" fill="#F92942"/>
<path d="M584.652 361.93H605.443V350.735H584.652V361.93Z" fill="#ECE8EC"/>
<path d="M587.438 307.195C586.415 293.653 585.685 280.09 585.233 266.517C598.085 260.796 626.751 263.349 629.432 271.838C632.277 280.846 621.436 306.489 621.436 316.084C621.436 325.68 625.168 332.61 625.701 336.874C626.234 341.138 623.569 344.337 623.569 344.337H590.707C589.87 331.942 588.372 319.564 587.438 307.195Z" fill="#ECE8EC"/>
<path d="M587.438 307.195C586.372 293.081 585.627 278.946 585.18 264.8C599.303 261.499 621.745 264.375 624.101 271.838C626.946 280.846 616.105 306.489 616.105 316.084C616.105 325.68 619.837 332.61 620.37 336.874C620.903 341.139 618.238 344.337 618.238 344.337H590.707C589.87 331.942 588.372 319.564 587.438 307.195Z" fill="white"/>
<path d="M561.729 354.467H616.482C620.395 354.467 623.568 351.295 623.568 347.381V344.338H561.73V354.467H561.729Z" fill="white"/>
<path d="M573.457 321.06C573.457 321.06 543.874 338.636 542.115 345.893C540.016 354.553 554.204 405.833 554.204 405.833C557.55 408.084 563.753 407.324 566.035 405.276C566.035 405.276 554.622 361.397 555.865 358.465C558.909 351.29 584.83 342.739 593.004 334.92C601.178 327.101 601.889 319.638 601.889 319.638L573.457 321.06Z" fill="#0B4870"/>
<path d="M607.277 313.2C607.277 313.2 617.354 334.21 608.291 342.739C604.142 346.644 579.321 343.094 577.9 347.004L592.885 396.787C592.885 396.787 590.242 398.394 584.911 401.059C584.911 401.059 553.733 346.115 556.932 339.007C560.131 331.899 581.632 327.812 582.698 323.903C583.764 319.994 584.475 313.597 584.475 313.597L607.277 313.2Z" fill="#0B4870"/>
<path d="M564.531 256.212C565.174 258.652 566.318 261.339 568.713 262.133C570.914 262.863 573.252 261.685 575.245 260.498C577.589 259.102 579.966 257.571 581.465 255.292C583.74 251.833 585.58 247.608 585.325 243.476C585.235 242.015 583.097 240.224 582.21 239.06C581.584 238.238 580.649 237.714 579.716 237.27C577.5 236.215 575.135 235.476 572.713 235.081C568.669 234.422 564.173 235.326 563.364 239.767C562.403 245.053 563.176 251.071 564.531 256.212Z" fill="#F5D09F"/>
<path d="M593.049 262.863C593.049 262.863 593.004 262.065 590.161 261.354C589.345 261.15 588.325 261.148 587.676 260.581C585.375 258.569 583.261 254.824 582.477 252.065C582.361 251.656 582.247 251.223 582.355 250.812C580.433 252.441 578.576 254.146 576.79 255.921C576.178 256.529 572.477 256.185 572.925 257.009C573.05 257.24 573.993 259.396 574.921 261.485C573.126 262.661 571.149 264.197 571.149 264.197L568.661 278.057L575.947 282.144C575.947 282.144 584.121 280.367 589.452 277.524C594.781 274.682 593.049 262.863 593.049 262.863Z" fill="#F5D09F"/>
<path d="M590.161 261.354C590.161 261.354 588.029 265.263 582.698 267.573C577.367 269.883 572.569 262.953 572.569 262.953L567.19 267.083C567.19 267.083 566.705 285.977 569.016 296.283C571.326 306.59 573.458 321.06 573.458 321.06C573.458 321.06 575.841 324.553 578.886 324.759C582.611 325.011 587.742 322.094 595.848 323.547C604.842 325.16 611.537 323.745 611.537 323.745C611.537 323.745 604.619 289.937 603.019 283.185C601.42 276.432 597.269 262.598 597.269 262.598C597.269 262.598 593.715 261.71 590.161 261.354Z" fill="#F92942"/>
<path d="M495.719 311.689H527.122V309.005H493.842V309.811C493.841 310.848 494.682 311.689 495.719 311.689Z" fill="#ECE8EC"/>
<path d="M505.861 278.424C506.786 278.424 507.612 279.004 507.927 279.873L518.495 309.042L517.843 309.314L518.015 309.823L493.841 309.006L483.552 281.383C483.017 279.947 484.08 278.417 485.613 278.418L505.861 278.424Z" fill="#F92942"/>
<path d="M497.592 295.693C498.309 298.445 499.715 300.64 500.732 300.595C501.749 300.55 501.992 298.283 501.275 295.53C500.558 292.778 499.152 290.583 498.135 290.628C497.118 290.673 496.875 292.941 497.592 295.693Z" fill="white"/>
<path d="M570.507 240.69C567.049 240.462 563.412 240.442 560.389 238.868C558.92 238.103 557.601 236.882 557.32 235.341C557.039 233.8 558.167 232.013 559.848 231.902C560.194 231.879 560.571 231.918 560.861 231.74C561.232 231.513 561.293 231.042 561.349 230.633C561.725 227.891 564.031 225.126 567.01 225.194C569.44 225.249 571.701 227.119 574.054 226.553C574.778 226.379 575.413 225.986 576.077 225.666C578.073 224.702 580.423 224.383 582.633 224.775C584.965 225.189 587.438 227.029 586.867 229.166C586.676 229.88 586.165 230.501 586.028 231.226C585.541 233.811 589.66 235.1 590.474 237.613C591.215 239.9 588.953 242.178 589.127 244.56C589.223 245.884 589.996 247.44 588.988 248.382C588.45 248.885 587.532 249.01 587.171 249.634C586.68 250.484 587.594 251.45 587.675 252.412C587.774 253.605 586.413 254.604 585.128 254.503C583.843 254.402 582.774 253.452 582.269 252.352C581.763 251.252 581.726 250.019 581.766 248.824C583.942 248.212 585.281 244.627 583.234 243.711C582.142 243.222 580.981 244.408 580.567 245.414C578.405 241.982 574.954 240.69 570.507 240.69Z" fill="#0B4870"/>
<path d="M579.34 246.209C578.622 247.863 577.903 249.517 577.185 251.171C576.897 251.834 576.592 252.521 576.042 252.989C575.202 253.705 573.973 253.751 572.891 253.532C571.809 253.313 569.741 252.718 568.641 252.812C566.128 253.027 564.278 254.231 564.118 254.535C563.795 255.149 564.248 256.105 564.258 256.799C564.268 257.527 564.152 258.277 563.777 258.902C563.526 259.32 563.171 259.664 562.837 260.019C561.945 260.969 561.141 262.153 561.214 263.454C561.314 265.233 562.953 266.476 564.437 267.462C565.387 268.093 566.371 268.738 567.493 268.945C568.245 269.084 569.018 269.017 569.78 268.949C571.368 268.808 572.97 268.665 574.495 268.197C576.019 267.729 577.48 266.905 578.438 265.631C579.256 264.543 579.656 263.206 580.037 261.899C580.653 259.785 581.26 257.642 581.336 255.442C581.408 253.38 581.01 251.334 580.801 249.281C580.619 247.489 580.581 245.683 580.686 243.886C580.699 243.667 580.723 243.137 580.399 243.092C580.041 243.042 580.166 243.581 580.117 243.805C579.932 244.648 579.685 245.414 579.34 246.209Z" fill="#0B4870"/>
<path d="M566.085 255.646C565.744 256.384 565.919 257.328 566.502 257.895C566.765 258.151 567.125 258.336 567.489 258.294C567.853 258.252 568.194 257.928 568.164 257.563C568.153 257.428 568.099 257.28 568.171 257.166C568.241 257.055 568.393 257.036 568.524 257.029C569.015 257.003 569.614 257.034 569.844 257.468C569.914 257.6 569.938 257.754 570.017 257.88C570.206 258.181 570.626 258.218 570.98 258.189C571.49 258.147 571.994 258.035 572.474 257.856C572.718 257.765 572.962 257.653 573.14 257.463C573.318 257.273 573.417 256.991 573.329 256.747C573.255 256.544 573.072 256.405 572.896 256.28C571.36 255.187 567.322 252.97 566.085 255.646Z" fill="#F5D09F"/>
<path d="M588.548 347.371C588.548 347.371 587.524 318.689 593.926 316.795C600.329 314.901 614.415 315.442 614.415 315.442L615.696 320.583C615.696 320.583 597.256 319.23 594.694 322.748C592.133 326.266 594.694 347.641 594.694 347.641L588.548 347.371Z" fill="white"/>
<path d="M536.957 305.129L545.194 302.396L552.486 304.242C556.591 303.175 557.957 303.234 566.364 301.073C573.462 299.248 581.613 295.608 581.613 295.608L590.862 281.788C594.771 282.143 599.776 290.1 599.776 290.1C599.776 290.1 588.544 305.382 585.345 306.448C582.147 307.514 557.747 310.344 549.527 309.401C546.938 309.104 542.359 306.27 542.359 306.27L538.207 307.242L533.139 310.663L532.254 309.931L534.27 307.723L536.957 305.129Z" fill="#F5D09F"/>
<path d="M597.269 262.598C597.269 262.598 608.286 264.375 608.108 273.793C607.992 279.927 599.579 291.385 599.579 291.385C599.579 291.385 594.959 284.988 589.273 283.211C589.273 283.211 593.715 274.504 594.071 270.95C594.426 267.396 597.269 262.598 597.269 262.598Z" fill="#F92942"/>
<path d="M520.373 311.689H551.776V309.005H518.496V309.811C518.495 310.848 519.336 311.689 520.373 311.689Z" fill="white"/>
<path d="M537.576 310.691H548.669V309.859H537.576V310.691Z" fill="#ECE8EC"/>
<path d="M534.271 310.691H535.912V309.859H534.271V310.691Z" fill="#ECE8EC"/>
<path d="M586.659 419.776H588.701L565.693 319.678H561.361L586.659 419.776Z" fill="white"/>
<path d="M524.316 418.729H526.359L541.161 319.678H536.828L524.316 418.729Z" fill="white"/>
<path d="M493.313 419.334H495.355L479.09 319.678H474.757L493.313 419.334Z" fill="white"/>
<path d="M435.993 418.275H438.036L457.612 319.678H453.279L435.993 418.275Z" fill="white"/>
<path d="M470.012 319.679H577.938V315.204H470.012V319.679Z" fill="#7DADDF"/>
<path d="M435.404 319.679H534.93V315.204H435.404V319.679Z" fill="#93BCEB"/>
<path d="M472.411 317.449H587.839V311.46H472.411V317.449Z" fill="#93BCEB"/>
<path d="M420.27 317.449H527.299V311.46H420.27V317.449Z" fill="#CCE1F7"/>
<path d="M276.362 168.977C270.237 158.482 261.928 150.173 251.434 144.048C240.938 137.923 229.48 134.861 217.051 134.861C204.624 134.861 193.162 137.924 182.668 144.048C172.173 150.172 163.865 158.482 157.739 168.977C151.615 179.472 148.552 190.932 148.552 203.358C148.552 218.284 152.907 231.706 161.618 243.627C170.329 255.549 181.582 263.799 195.376 268.377C196.982 268.675 198.17 268.465 198.943 267.753C199.716 267.04 200.102 266.147 200.102 265.078C200.102 264.9 200.087 263.295 200.057 260.262C200.026 257.229 200.012 254.583 200.012 252.325L197.961 252.68C196.653 252.92 195.003 253.021 193.011 252.992C191.02 252.964 188.953 252.755 186.813 252.368C184.672 251.983 182.68 251.092 180.837 249.694C178.995 248.297 177.687 246.468 176.913 244.21L176.021 242.158C175.427 240.792 174.491 239.274 173.212 237.61C171.933 235.945 170.64 234.816 169.332 234.221L168.708 233.774C168.292 233.477 167.906 233.119 167.549 232.703C167.192 232.287 166.925 231.871 166.747 231.454C166.568 231.037 166.716 230.695 167.193 230.427C167.669 230.159 168.53 230.028 169.78 230.028L171.563 230.294C172.752 230.532 174.223 231.244 175.978 232.434C177.732 233.623 179.173 235.169 180.303 237.07C181.671 239.509 183.32 241.367 185.253 242.645C187.185 243.924 189.133 244.562 191.094 244.562C193.055 244.562 194.75 244.413 196.178 244.117C197.604 243.82 198.942 243.373 200.191 242.778C200.726 238.792 202.183 235.731 204.561 233.591C201.172 233.235 198.125 232.698 195.419 231.985C192.714 231.271 189.919 230.112 187.036 228.505C184.151 226.9 181.758 224.907 179.856 222.53C177.954 220.151 176.392 217.029 175.174 213.165C173.955 209.299 173.346 204.84 173.346 199.786C173.346 192.59 175.695 186.467 180.393 181.412C178.192 176.002 178.4 169.937 181.017 163.218C182.741 162.682 185.299 163.084 188.687 164.422C192.076 165.76 194.558 166.906 196.134 167.856C197.71 168.806 198.973 169.611 199.925 170.264C205.456 168.719 211.164 167.946 217.05 167.946C222.936 167.946 228.645 168.719 234.176 170.264L237.565 168.124C239.883 166.696 242.619 165.388 245.769 164.199C248.92 163.01 251.33 162.683 252.996 163.219C255.671 169.938 255.909 176.003 253.708 181.413C258.405 186.468 260.755 192.593 260.755 199.787C260.755 204.841 260.143 209.314 258.927 213.209C257.709 217.105 256.134 220.224 254.202 222.574C252.268 224.923 249.859 226.901 246.976 228.505C244.092 230.111 241.296 231.27 238.591 231.984C235.885 232.698 232.838 233.235 229.449 233.592C232.54 236.267 234.086 240.489 234.086 246.256V265.074C234.086 266.143 234.458 267.036 235.202 267.749C235.945 268.461 237.119 268.671 238.725 268.372C252.521 263.794 263.774 255.545 272.485 243.622C281.194 231.701 285.551 218.279 285.551 203.353C285.548 190.931 282.484 179.472 276.362 168.977Z" fill="#F92942"/>
<path d="M136.468 397.016H59.924C57.886 397.016 56.234 395.364 56.234 393.326V301.373C56.234 299.335 57.886 297.683 59.924 297.683H136.468C138.506 297.683 140.158 299.335 140.158 301.373V393.326C140.158 395.364 138.506 397.016 136.468 397.016Z" fill="#CCE1F7"/>
<path d="M82.488 310.611H74.608V313.859H82.488V310.611Z" fill="white"/>
<path d="M101.059 310.611H86.842V313.859H101.059V310.611Z" fill="white"/>
<path d="M109.55 317.513H80.02V320.761H109.55V317.513Z" fill="white"/>
<path d="M121.784 317.513H113.904V320.761H121.784V317.513Z" fill="#3FC9EE"/>
<path d="M109.55 324.414H80.02V327.662H109.55V324.414Z" fill="white"/>
<path d="M121.784 324.414H113.904V327.662H121.784V324.414Z" fill="#3FC9EE"/>
<path d="M109.55 331.316H80.02V334.564H109.55V331.316Z" fill="white"/>
<path d="M121.784 331.316H113.904V334.564H121.784V331.316Z" fill="#3FC9EE"/>
<path d="M82.488 338.218H74.608V341.466H82.488V338.218Z" fill="white"/>
<path d="M101.059 338.218H86.842V341.466H101.059V338.218Z" fill="white"/>
<path d="M94.785 345.12H80.02V348.368H94.785V345.12Z" fill="#3FC9EE"/>
<path d="M121.784 345.12H99.139V348.368H121.784V345.12Z" fill="white"/>
<path d="M94.785 352.021H80.02V355.269H94.785V352.021Z" fill="#3FC9EE"/>
<path d="M121.784 352.021H99.139V355.269H121.784V352.021Z" fill="white"/>
<path d="M94.785 358.923H80.02V362.171H94.785V358.923Z" fill="#3FC9EE"/>
<path d="M121.784 358.923H99.139V362.171H121.784V358.923Z" fill="white"/>
<path d="M146.145 409.62H50.247V342.687L98.196 382.998L146.145 342.687V409.62Z" fill="#F92942"/>
<path opacity="0.81" d="M50.247 409.62L98.196 353.907L146.145 409.62H50.247Z" fill="#F92942"/>
<path d="M88.522 140.585H60.187C51.605 140.585 44.649 147.542 44.649 156.124V176.232C44.649 183.037 49.03 188.805 55.12 190.908L55.617 201.685L69.577 191.77H88.522C97.104 191.77 104.06 184.813 104.06 176.231V156.123C104.061 147.541 97.104 140.585 88.522 140.585Z" fill="#CCE1F7"/>
<path d="M122.752 112.084H85.37C74.048 112.084 64.87 121.262 64.87 132.584V159.113C64.87 170.435 74.048 179.613 85.37 179.613H110.364L128.781 192.693L129.437 178.476C137.472 175.701 143.252 168.091 143.252 159.114V132.585C143.252 121.262 134.074 112.084 122.752 112.084Z" fill="white"/>
<path d="M92.138 145.064L85.117 147.551L92.138 150.038V153.251L81.288 149.246V145.857L92.138 141.852V145.064Z" fill="#F92942"/>
<path d="M106.267 136.723H109.986L102.723 157.454H99.004L106.267 136.723Z" fill="#F92942"/>
<path d="M127.481 145.856V149.245L116.631 153.25V150.037L123.652 147.55L116.631 145.063V141.85L127.481 145.856Z" fill="#F92942"/>
<path d="M322.993 130.907H296.802V140.495H322.993V130.907Z" fill="#F92942"/>
<path d="M384.716 130.907H337.463V140.495H384.716V130.907Z" fill="#F92942"/>
<path d="M412.938 151.282H314.791V160.87H412.938V151.282Z" fill="white"/>
<path d="M453.599 151.282H427.408V160.87H453.599V151.282Z" fill="#3FC9EE"/>
<path d="M412.938 171.657H314.791V181.245H412.938V171.657Z" fill="white"/>
<path d="M453.599 171.657H427.408V181.245H453.599V171.657Z" fill="#3FC9EE"/>
<path d="M412.938 192.032H314.791V201.62H412.938V192.032Z" fill="white"/>
<path d="M453.599 192.032H427.408V201.62H453.599V192.032Z" fill="#3FC9EE"/>
<path d="M322.993 212.406H296.802V221.994H322.993V212.406Z" fill="#F92942"/>
<path d="M384.716 212.406H337.463V221.994H384.716V212.406Z" fill="#F92942"/>
<path d="M363.864 232.781H314.791V242.369H363.864V232.781Z" fill="#3FC9EE"/>
<path d="M453.599 232.781H378.335V242.369H453.599V232.781Z" fill="white"/>
<path d="M363.864 253.156H314.791V262.744H363.864V253.156Z" fill="#3FC9EE"/>
<path d="M453.599 253.156H378.335V262.744H453.599V253.156Z" fill="white"/>
<path d="M363.864 273.531H314.791V283.119H363.864V273.531Z" fill="#3FC9EE"/>
<path d="M453.599 273.531H378.335V283.119H453.599V273.531Z" fill="white"/>
</g>
<defs>
<clipPath id="clip0">
<rect width="700" height="470" fill="white"/>
</clipPath>
</defs>
</svg>
